<mxfile host="app.diagrams.net" modified="2023-11-28T05:08:11.404Z" agent="Mozilla/5.0 (X11; Linux x86_64) AppleWebKit/537.36 (KHTML, like Gecko) Chrome/119.0.0.0 Safari/537.36" etag="sKi0KHqIxw7vMvHOseKL" version="22.1.4" type="github" pages="3">
  <diagram name="Tourist-Agent" id="13e1069c-82ec-6db2-03f1-153e76fe0fe0">
    <mxGraphModel dx="4098" dy="1422" grid="1" gridSize="10" guides="1" tooltips="1" connect="1" arrows="1" fold="1" page="1" pageScale="1" pageWidth="1100" pageHeight="850" background="none" math="0" shadow="0">
      <root>
        <mxCell id="0" />
        <mxCell id="1" parent="0" />
        <mxCell id="7baba1c4bc27f4b0-2" value="Flight Reservation System" style="shape=umlLifeline;perimeter=lifelinePerimeter;whiteSpace=wrap;html=1;container=1;collapsible=0;recursiveResize=0;outlineConnect=0;rounded=1;shadow=0;comic=0;labelBackgroundColor=none;strokeWidth=1;fontFamily=Verdana;fontSize=12;align=center;" parent="1" vertex="1">
          <mxGeometry x="-570" y="10" width="100" height="580" as="geometry" />
        </mxCell>
        <mxCell id="7baba1c4bc27f4b0-10" value="" style="html=1;points=[];perimeter=orthogonalPerimeter;rounded=0;shadow=0;comic=0;labelBackgroundColor=none;strokeWidth=1;fontFamily=Verdana;fontSize=12;align=center;" parent="7baba1c4bc27f4b0-2" vertex="1">
          <mxGeometry x="45" y="140" width="10" height="40" as="geometry" />
        </mxCell>
        <mxCell id="tGzEacVjx0UiO7vIrDuo-16" value="" style="html=1;verticalAlign=bottom;endArrow=block;entryX=0.133;entryY=-0.024;labelBackgroundColor=none;fontFamily=Verdana;fontSize=12;edgeStyle=elbowEdgeStyle;elbow=vertical;entryDx=0;entryDy=0;entryPerimeter=0;" parent="7baba1c4bc27f4b0-2" target="tGzEacVjx0UiO7vIrDuo-18" edge="1">
          <mxGeometry x="0.0065" relative="1" as="geometry">
            <mxPoint x="-95" y="280" as="sourcePoint" />
            <mxPoint x="50" y="270" as="targetPoint" />
            <mxPoint as="offset" />
          </mxGeometry>
        </mxCell>
        <mxCell id="tGzEacVjx0UiO7vIrDuo-17" value="Requests Flight &#39;s seats&lt;br&gt;" style="edgeLabel;html=1;align=center;verticalAlign=middle;resizable=0;points=[];" parent="tGzEacVjx0UiO7vIrDuo-16" vertex="1" connectable="0">
          <mxGeometry x="-0.2774" y="3" relative="1" as="geometry">
            <mxPoint x="14" y="-7" as="offset" />
          </mxGeometry>
        </mxCell>
        <mxCell id="tGzEacVjx0UiO7vIrDuo-18" value="" style="html=1;points=[];perimeter=orthogonalPerimeter;rounded=0;shadow=0;comic=0;labelBackgroundColor=none;strokeWidth=1;fontFamily=Verdana;fontSize=12;align=center;" parent="7baba1c4bc27f4b0-2" vertex="1">
          <mxGeometry x="45" y="280" width="10" height="40" as="geometry" />
        </mxCell>
        <mxCell id="7baba1c4bc27f4b0-3" value="Payment Gateway" style="shape=umlLifeline;perimeter=lifelinePerimeter;whiteSpace=wrap;html=1;container=1;collapsible=0;recursiveResize=0;outlineConnect=0;rounded=1;shadow=0;comic=0;labelBackgroundColor=none;strokeWidth=1;fontFamily=Verdana;fontSize=12;align=center;" parent="1" vertex="1">
          <mxGeometry x="-450" y="10" width="100" height="810" as="geometry" />
        </mxCell>
        <mxCell id="7baba1c4bc27f4b0-13" value="" style="html=1;points=[];perimeter=orthogonalPerimeter;rounded=0;shadow=0;comic=0;labelBackgroundColor=none;strokeWidth=1;fontFamily=Verdana;fontSize=12;align=center;" parent="7baba1c4bc27f4b0-3" vertex="1">
          <mxGeometry x="45" y="610" width="10" height="50" as="geometry" />
        </mxCell>
        <mxCell id="tGzEacVjx0UiO7vIrDuo-66" value="" style="endArrow=classic;html=1;rounded=0;exitX=0.679;exitY=1.054;exitDx=0;exitDy=0;exitPerimeter=0;" parent="7baba1c4bc27f4b0-3" target="7baba1c4bc27f4b0-3" edge="1">
          <mxGeometry width="50" height="50" relative="1" as="geometry">
            <mxPoint x="45" y="582" as="sourcePoint" />
            <mxPoint x="47" y="600" as="targetPoint" />
            <Array as="points">
              <mxPoint x="89" y="580" />
              <mxPoint x="89" y="610" />
            </Array>
          </mxGeometry>
        </mxCell>
        <mxCell id="tGzEacVjx0UiO7vIrDuo-67" value="Process Transaction" style="edgeLabel;html=1;align=center;verticalAlign=middle;resizable=0;points=[];" parent="tGzEacVjx0UiO7vIrDuo-66" vertex="1" connectable="0">
          <mxGeometry x="0.0013" y="1" relative="1" as="geometry">
            <mxPoint x="54" as="offset" />
          </mxGeometry>
        </mxCell>
        <mxCell id="7baba1c4bc27f4b0-4" value="Email System&lt;br&gt;" style="shape=umlLifeline;perimeter=lifelinePerimeter;whiteSpace=wrap;html=1;container=1;collapsible=0;recursiveResize=0;outlineConnect=0;rounded=1;shadow=0;comic=0;labelBackgroundColor=none;strokeWidth=1;fontFamily=Verdana;fontSize=12;align=center;" parent="1" vertex="1">
          <mxGeometry x="-290" y="10" width="100" height="790" as="geometry" />
        </mxCell>
        <mxCell id="tGzEacVjx0UiO7vIrDuo-70" value="" style="endArrow=classic;html=1;rounded=0;exitX=0.679;exitY=1.054;exitDx=0;exitDy=0;exitPerimeter=0;" parent="7baba1c4bc27f4b0-4" edge="1">
          <mxGeometry width="50" height="50" relative="1" as="geometry">
            <mxPoint x="50" y="662" as="sourcePoint" />
            <mxPoint x="55" y="690" as="targetPoint" />
            <Array as="points">
              <mxPoint x="94" y="660" />
              <mxPoint x="94" y="690" />
            </Array>
          </mxGeometry>
        </mxCell>
        <mxCell id="tGzEacVjx0UiO7vIrDuo-71" value="Generate E-TIcket and Receipt Email" style="edgeLabel;html=1;align=center;verticalAlign=middle;resizable=0;points=[];" parent="tGzEacVjx0UiO7vIrDuo-70" vertex="1" connectable="0">
          <mxGeometry x="0.0013" y="1" relative="1" as="geometry">
            <mxPoint x="95" as="offset" />
          </mxGeometry>
        </mxCell>
        <mxCell id="tGzEacVjx0UiO7vIrDuo-73" value="" style="html=1;points=[];perimeter=orthogonalPerimeter;rounded=0;shadow=0;comic=0;labelBackgroundColor=none;strokeWidth=1;fontFamily=Verdana;fontSize=12;align=center;" parent="7baba1c4bc27f4b0-4" vertex="1">
          <mxGeometry x="45" y="690" width="10" height="50" as="geometry" />
        </mxCell>
        <mxCell id="7baba1c4bc27f4b0-8" value="Web App&lt;br&gt;" style="shape=umlLifeline;perimeter=lifelinePerimeter;whiteSpace=wrap;html=1;container=1;collapsible=0;recursiveResize=0;outlineConnect=0;rounded=1;shadow=0;comic=0;labelBackgroundColor=none;strokeWidth=1;fontFamily=Verdana;fontSize=12;align=center;" parent="1" vertex="1">
          <mxGeometry x="-750" y="10" width="140" height="790" as="geometry" />
        </mxCell>
        <mxCell id="7baba1c4bc27f4b0-9" value="" style="html=1;points=[];perimeter=orthogonalPerimeter;rounded=0;shadow=0;comic=0;labelBackgroundColor=none;strokeWidth=1;fontFamily=Verdana;fontSize=12;align=center;" parent="7baba1c4bc27f4b0-8" vertex="1">
          <mxGeometry x="65" y="100" width="10" height="30" as="geometry" />
        </mxCell>
        <mxCell id="tGzEacVjx0UiO7vIrDuo-15" value="" style="html=1;points=[];perimeter=orthogonalPerimeter;rounded=0;shadow=0;comic=0;labelBackgroundColor=none;strokeWidth=1;fontFamily=Verdana;fontSize=12;align=center;" parent="7baba1c4bc27f4b0-8" vertex="1">
          <mxGeometry x="65" y="240" width="10" height="30" as="geometry" />
        </mxCell>
        <mxCell id="tGzEacVjx0UiO7vIrDuo-20" value="" style="html=1;labelBackgroundColor=#ffffff;startArrow=none;startFill=0;startSize=6;endArrow=classic;endFill=1;endSize=6;jettySize=auto;orthogonalLoop=1;strokeWidth=1;dashed=1;fontSize=14;rounded=0;" parent="7baba1c4bc27f4b0-8" edge="1">
          <mxGeometry width="60" height="60" relative="1" as="geometry">
            <mxPoint x="225" y="320" as="sourcePoint" />
            <mxPoint x="75" y="320" as="targetPoint" />
          </mxGeometry>
        </mxCell>
        <mxCell id="tGzEacVjx0UiO7vIrDuo-21" value="Respond Seats data&amp;nbsp;" style="edgeLabel;html=1;align=center;verticalAlign=middle;resizable=0;points=[];" parent="tGzEacVjx0UiO7vIrDuo-20" vertex="1" connectable="0">
          <mxGeometry x="-0.3133" y="-2" relative="1" as="geometry">
            <mxPoint x="-27" y="-8" as="offset" />
          </mxGeometry>
        </mxCell>
        <mxCell id="tGzEacVjx0UiO7vIrDuo-22" value="" style="html=1;points=[];perimeter=orthogonalPerimeter;rounded=0;shadow=0;comic=0;labelBackgroundColor=none;strokeWidth=1;fontFamily=Verdana;fontSize=12;align=center;" parent="7baba1c4bc27f4b0-8" vertex="1">
          <mxGeometry x="65" y="180" width="10" height="20" as="geometry" />
        </mxCell>
        <mxCell id="tGzEacVjx0UiO7vIrDuo-23" value="" style="html=1;points=[];perimeter=orthogonalPerimeter;rounded=0;shadow=0;comic=0;labelBackgroundColor=none;strokeWidth=1;fontFamily=Verdana;fontSize=12;align=center;" parent="7baba1c4bc27f4b0-8" vertex="1">
          <mxGeometry x="65" y="320" width="10" height="20" as="geometry" />
        </mxCell>
        <mxCell id="tGzEacVjx0UiO7vIrDuo-28" value="" style="html=1;points=[];perimeter=orthogonalPerimeter;rounded=0;shadow=0;comic=0;labelBackgroundColor=none;strokeWidth=1;fontFamily=Verdana;fontSize=12;align=center;" parent="7baba1c4bc27f4b0-8" vertex="1">
          <mxGeometry x="65" y="380" width="10" height="30" as="geometry" />
        </mxCell>
        <mxCell id="tGzEacVjx0UiO7vIrDuo-30" value="" style="html=1;labelBackgroundColor=#ffffff;startArrow=none;startFill=0;startSize=6;endArrow=classic;endFill=1;endSize=6;jettySize=auto;orthogonalLoop=1;strokeWidth=1;dashed=1;fontSize=14;rounded=0;exitX=0.6;exitY=1.1;exitDx=0;exitDy=0;exitPerimeter=0;" parent="7baba1c4bc27f4b0-8" edge="1">
          <mxGeometry width="60" height="60" relative="1" as="geometry">
            <mxPoint x="71" y="410" as="sourcePoint" />
            <mxPoint x="-250" y="410" as="targetPoint" />
          </mxGeometry>
        </mxCell>
        <mxCell id="tGzEacVjx0UiO7vIrDuo-31" value="Asks To Register" style="edgeLabel;html=1;align=center;verticalAlign=middle;resizable=0;points=[];" parent="tGzEacVjx0UiO7vIrDuo-30" vertex="1" connectable="0">
          <mxGeometry x="-0.3133" y="-2" relative="1" as="geometry">
            <mxPoint x="-51" y="-10" as="offset" />
          </mxGeometry>
        </mxCell>
        <mxCell id="tGzEacVjx0UiO7vIrDuo-38" value="" style="endArrow=classic;html=1;rounded=0;entryX=1.005;entryY=0.078;entryDx=0;entryDy=0;entryPerimeter=0;exitX=0.7;exitY=0.002;exitDx=0;exitDy=0;exitPerimeter=0;" parent="7baba1c4bc27f4b0-8" source="tGzEacVjx0UiO7vIrDuo-58" target="tGzEacVjx0UiO7vIrDuo-60" edge="1">
          <mxGeometry width="50" height="50" relative="1" as="geometry">
            <mxPoint x="70" y="470" as="sourcePoint" />
            <mxPoint x="80" y="500" as="targetPoint" />
            <Array as="points">
              <mxPoint x="110" y="440" />
              <mxPoint x="110" y="470" />
              <mxPoint x="110" y="480" />
              <mxPoint x="110" y="502" />
            </Array>
          </mxGeometry>
        </mxCell>
        <mxCell id="tGzEacVjx0UiO7vIrDuo-41" value="Process Registeration&lt;br&gt;&amp;nbsp;" style="edgeLabel;html=1;align=center;verticalAlign=middle;resizable=0;points=[];" parent="tGzEacVjx0UiO7vIrDuo-38" vertex="1" connectable="0">
          <mxGeometry x="0.0013" y="1" relative="1" as="geometry">
            <mxPoint x="59" y="10" as="offset" />
          </mxGeometry>
        </mxCell>
        <mxCell id="tGzEacVjx0UiO7vIrDuo-42" value="" style="endArrow=classic;html=1;rounded=0;entryX=0.912;entryY=-0.008;entryDx=0;entryDy=0;entryPerimeter=0;exitX=0.679;exitY=1.054;exitDx=0;exitDy=0;exitPerimeter=0;" parent="7baba1c4bc27f4b0-8" source="tGzEacVjx0UiO7vIrDuo-60" target="tGzEacVjx0UiO7vIrDuo-61" edge="1">
          <mxGeometry width="50" height="50" relative="1" as="geometry">
            <mxPoint x="75" y="525" as="sourcePoint" />
            <mxPoint x="85.86000000000013" y="550" as="targetPoint" />
            <Array as="points">
              <mxPoint x="120" y="530" />
              <mxPoint x="120" y="550" />
            </Array>
          </mxGeometry>
        </mxCell>
        <mxCell id="tGzEacVjx0UiO7vIrDuo-43" value="Process Seat pick&amp;nbsp;" style="edgeLabel;html=1;align=center;verticalAlign=middle;resizable=0;points=[];" parent="tGzEacVjx0UiO7vIrDuo-42" vertex="1" connectable="0">
          <mxGeometry x="0.0013" y="1" relative="1" as="geometry">
            <mxPoint x="54" as="offset" />
          </mxGeometry>
        </mxCell>
        <mxCell id="tGzEacVjx0UiO7vIrDuo-54" value="" style="html=1;verticalAlign=bottom;endArrow=block;labelBackgroundColor=none;fontFamily=Verdana;fontSize=12;edgeStyle=elbowEdgeStyle;elbow=vertical;" parent="7baba1c4bc27f4b0-8" target="7baba1c4bc27f4b0-3" edge="1">
          <mxGeometry x="0.0065" relative="1" as="geometry">
            <mxPoint x="75" y="581" as="sourcePoint" />
            <mxPoint x="216" y="580" as="targetPoint" />
            <mxPoint as="offset" />
          </mxGeometry>
        </mxCell>
        <mxCell id="tGzEacVjx0UiO7vIrDuo-55" value="Sends Payment Details" style="edgeLabel;html=1;align=center;verticalAlign=middle;resizable=0;points=[];" parent="tGzEacVjx0UiO7vIrDuo-54" vertex="1" connectable="0">
          <mxGeometry x="-0.2774" y="3" relative="1" as="geometry">
            <mxPoint x="14" y="-7" as="offset" />
          </mxGeometry>
        </mxCell>
        <mxCell id="tGzEacVjx0UiO7vIrDuo-58" value="" style="html=1;points=[];perimeter=orthogonalPerimeter;rounded=0;shadow=0;comic=0;labelBackgroundColor=none;strokeWidth=1;fontFamily=Verdana;fontSize=12;align=center;" parent="7baba1c4bc27f4b0-8" vertex="1">
          <mxGeometry x="65" y="440" width="10" height="180" as="geometry" />
        </mxCell>
        <mxCell id="tGzEacVjx0UiO7vIrDuo-60" value="" style="html=1;points=[];perimeter=orthogonalPerimeter;rounded=0;shadow=0;comic=0;labelBackgroundColor=none;strokeWidth=1;fontFamily=Verdana;fontSize=12;align=center;" parent="7baba1c4bc27f4b0-8" vertex="1">
          <mxGeometry x="69" y="500" width="10" height="30" as="geometry" />
        </mxCell>
        <mxCell id="tGzEacVjx0UiO7vIrDuo-61" value="" style="html=1;points=[];perimeter=orthogonalPerimeter;rounded=0;shadow=0;comic=0;labelBackgroundColor=none;strokeWidth=1;fontFamily=Verdana;fontSize=12;align=center;" parent="7baba1c4bc27f4b0-8" vertex="1">
          <mxGeometry x="69" y="550" width="10" height="30" as="geometry" />
        </mxCell>
        <mxCell id="7baba1c4bc27f4b0-11" value="requests search query&lt;br&gt;" style="html=1;verticalAlign=bottom;endArrow=block;labelBackgroundColor=none;fontFamily=Verdana;fontSize=12;edgeStyle=elbowEdgeStyle;elbow=vertical;" parent="1" target="7baba1c4bc27f4b0-2" edge="1">
          <mxGeometry relative="1" as="geometry">
            <mxPoint x="-680" y="150" as="sourcePoint" />
            <mxPoint x="-535" y="140" as="targetPoint" />
          </mxGeometry>
        </mxCell>
        <mxCell id="tGzEacVjx0UiO7vIrDuo-3" value="Tourism Agent: User" style="shape=umlLifeline;perimeter=lifelinePerimeter;whiteSpace=wrap;html=1;container=1;collapsible=0;recursiveResize=0;outlineConnect=0;rounded=1;shadow=0;comic=0;labelBackgroundColor=none;strokeWidth=1;fontFamily=Verdana;fontSize=12;align=center;" parent="1" vertex="1">
          <mxGeometry x="-1050" y="10" width="100" height="810" as="geometry" />
        </mxCell>
        <mxCell id="tGzEacVjx0UiO7vIrDuo-5" value="" style="endArrow=classic;html=1;rounded=0;" parent="tGzEacVjx0UiO7vIrDuo-3" target="7baba1c4bc27f4b0-8" edge="1">
          <mxGeometry width="50" height="50" relative="1" as="geometry">
            <mxPoint x="50" y="100" as="sourcePoint" />
            <mxPoint x="100" y="50" as="targetPoint" />
          </mxGeometry>
        </mxCell>
        <mxCell id="tGzEacVjx0UiO7vIrDuo-6" value="Inputs destination, data, and perferences into search interface&lt;br&gt;" style="edgeLabel;html=1;align=center;verticalAlign=middle;resizable=0;points=[];" parent="tGzEacVjx0UiO7vIrDuo-5" vertex="1" connectable="0">
          <mxGeometry x="-0.197" y="3" relative="1" as="geometry">
            <mxPoint x="27" y="-10" as="offset" />
          </mxGeometry>
        </mxCell>
        <mxCell id="tGzEacVjx0UiO7vIrDuo-8" value="" style="html=1;labelBackgroundColor=#ffffff;startArrow=none;startFill=0;startSize=6;endArrow=classic;endFill=1;endSize=6;jettySize=auto;orthogonalLoop=1;strokeWidth=1;dashed=1;fontSize=14;rounded=0;" parent="1" edge="1">
          <mxGeometry width="60" height="60" relative="1" as="geometry">
            <mxPoint x="-530.5" y="190" as="sourcePoint" />
            <mxPoint x="-680.5" y="190" as="targetPoint" />
          </mxGeometry>
        </mxCell>
        <mxCell id="tGzEacVjx0UiO7vIrDuo-9" value="Respond data&amp;nbsp;" style="edgeLabel;html=1;align=center;verticalAlign=middle;resizable=0;points=[];" parent="tGzEacVjx0UiO7vIrDuo-8" vertex="1" connectable="0">
          <mxGeometry x="-0.3133" y="-2" relative="1" as="geometry">
            <mxPoint x="-27" y="-8" as="offset" />
          </mxGeometry>
        </mxCell>
        <mxCell id="tGzEacVjx0UiO7vIrDuo-10" value="" style="html=1;labelBackgroundColor=#ffffff;startArrow=none;startFill=0;startSize=6;endArrow=classic;endFill=1;endSize=6;jettySize=auto;orthogonalLoop=1;strokeWidth=1;dashed=1;fontSize=14;rounded=0;" parent="1" target="tGzEacVjx0UiO7vIrDuo-3" edge="1">
          <mxGeometry width="60" height="60" relative="1" as="geometry">
            <mxPoint x="-685" y="210" as="sourcePoint" />
            <mxPoint x="-835" y="210" as="targetPoint" />
          </mxGeometry>
        </mxCell>
        <mxCell id="tGzEacVjx0UiO7vIrDuo-11" value="Responds with list of Flights" style="edgeLabel;html=1;align=center;verticalAlign=middle;resizable=0;points=[];" parent="tGzEacVjx0UiO7vIrDuo-10" vertex="1" connectable="0">
          <mxGeometry x="-0.3133" y="-2" relative="1" as="geometry">
            <mxPoint x="-27" y="-8" as="offset" />
          </mxGeometry>
        </mxCell>
        <mxCell id="tGzEacVjx0UiO7vIrDuo-12" value="" style="endArrow=classic;html=1;rounded=0;" parent="1" edge="1">
          <mxGeometry width="50" height="50" relative="1" as="geometry">
            <mxPoint x="-1000" y="250" as="sourcePoint" />
            <mxPoint x="-680" y="250" as="targetPoint" />
          </mxGeometry>
        </mxCell>
        <mxCell id="tGzEacVjx0UiO7vIrDuo-13" value="Picks a Flight" style="edgeLabel;html=1;align=center;verticalAlign=middle;resizable=0;points=[];" parent="tGzEacVjx0UiO7vIrDuo-12" vertex="1" connectable="0">
          <mxGeometry x="-0.197" y="3" relative="1" as="geometry">
            <mxPoint x="27" y="-10" as="offset" />
          </mxGeometry>
        </mxCell>
        <mxCell id="tGzEacVjx0UiO7vIrDuo-24" value="" style="html=1;labelBackgroundColor=#ffffff;startArrow=none;startFill=0;startSize=6;endArrow=classic;endFill=1;endSize=6;jettySize=auto;orthogonalLoop=1;strokeWidth=1;dashed=1;fontSize=14;rounded=0;exitX=0.6;exitY=1.1;exitDx=0;exitDy=0;exitPerimeter=0;" parent="1" source="tGzEacVjx0UiO7vIrDuo-23" target="tGzEacVjx0UiO7vIrDuo-3" edge="1">
          <mxGeometry width="60" height="60" relative="1" as="geometry">
            <mxPoint x="-675" y="355" as="sourcePoint" />
            <mxPoint x="-990" y="355" as="targetPoint" />
          </mxGeometry>
        </mxCell>
        <mxCell id="tGzEacVjx0UiO7vIrDuo-25" value="Shows the Seat maps&lt;br&gt;" style="edgeLabel;html=1;align=center;verticalAlign=middle;resizable=0;points=[];" parent="tGzEacVjx0UiO7vIrDuo-24" vertex="1" connectable="0">
          <mxGeometry x="-0.3133" y="-2" relative="1" as="geometry">
            <mxPoint x="-51" y="-10" as="offset" />
          </mxGeometry>
        </mxCell>
        <mxCell id="tGzEacVjx0UiO7vIrDuo-26" value="" style="endArrow=classic;html=1;rounded=0;" parent="1" edge="1">
          <mxGeometry width="50" height="50" relative="1" as="geometry">
            <mxPoint x="-1000" y="390" as="sourcePoint" />
            <mxPoint x="-680" y="390" as="targetPoint" />
          </mxGeometry>
        </mxCell>
        <mxCell id="tGzEacVjx0UiO7vIrDuo-27" value="`" style="edgeLabel;html=1;align=center;verticalAlign=middle;resizable=0;points=[];" parent="tGzEacVjx0UiO7vIrDuo-26" vertex="1" connectable="0">
          <mxGeometry x="-0.197" y="3" relative="1" as="geometry">
            <mxPoint x="27" y="-10" as="offset" />
          </mxGeometry>
        </mxCell>
        <mxCell id="tGzEacVjx0UiO7vIrDuo-29" value="Picks Seat/Seats and tries to pay&lt;br&gt;" style="edgeLabel;html=1;align=center;verticalAlign=middle;resizable=0;points=[];" parent="tGzEacVjx0UiO7vIrDuo-26" vertex="1" connectable="0">
          <mxGeometry x="0.0875" y="-1" relative="1" as="geometry">
            <mxPoint x="-14" y="-11" as="offset" />
          </mxGeometry>
        </mxCell>
        <mxCell id="tGzEacVjx0UiO7vIrDuo-32" value="" style="endArrow=classic;html=1;rounded=0;" parent="1" edge="1">
          <mxGeometry width="50" height="50" relative="1" as="geometry">
            <mxPoint x="-1000" y="450" as="sourcePoint" />
            <mxPoint x="-680" y="450" as="targetPoint" />
          </mxGeometry>
        </mxCell>
        <mxCell id="tGzEacVjx0UiO7vIrDuo-33" value="`" style="edgeLabel;html=1;align=center;verticalAlign=middle;resizable=0;points=[];" parent="tGzEacVjx0UiO7vIrDuo-32" vertex="1" connectable="0">
          <mxGeometry x="-0.197" y="3" relative="1" as="geometry">
            <mxPoint x="27" y="-10" as="offset" />
          </mxGeometry>
        </mxCell>
        <mxCell id="tGzEacVjx0UiO7vIrDuo-34" value="Registers&lt;br&gt;" style="edgeLabel;html=1;align=center;verticalAlign=middle;resizable=0;points=[];" parent="tGzEacVjx0UiO7vIrDuo-32" vertex="1" connectable="0">
          <mxGeometry x="0.0875" y="-1" relative="1" as="geometry">
            <mxPoint x="-14" y="-11" as="offset" />
          </mxGeometry>
        </mxCell>
        <mxCell id="tGzEacVjx0UiO7vIrDuo-68" value="" style="html=1;verticalAlign=bottom;endArrow=block;labelBackgroundColor=none;fontFamily=Verdana;fontSize=12;edgeStyle=elbowEdgeStyle;elbow=vertical;" parent="1" target="7baba1c4bc27f4b0-4" edge="1">
          <mxGeometry x="0.0065" relative="1" as="geometry">
            <mxPoint x="-390" y="670" as="sourcePoint" />
            <mxPoint x="-160" y="670" as="targetPoint" />
            <mxPoint as="offset" />
          </mxGeometry>
        </mxCell>
        <mxCell id="tGzEacVjx0UiO7vIrDuo-69" value="Sends Payment Details" style="edgeLabel;html=1;align=center;verticalAlign=middle;resizable=0;points=[];" parent="tGzEacVjx0UiO7vIrDuo-68" vertex="1" connectable="0">
          <mxGeometry x="-0.2774" y="3" relative="1" as="geometry">
            <mxPoint x="14" y="-7" as="offset" />
          </mxGeometry>
        </mxCell>
        <mxCell id="tGzEacVjx0UiO7vIrDuo-74" value="" style="html=1;labelBackgroundColor=#ffffff;startArrow=none;startFill=0;startSize=6;endArrow=classic;endFill=1;endSize=6;jettySize=auto;orthogonalLoop=1;strokeWidth=1;dashed=1;fontSize=14;rounded=0;" parent="1" edge="1">
          <mxGeometry width="60" height="60" relative="1" as="geometry">
            <mxPoint x="-240.5" y="750" as="sourcePoint" />
            <mxPoint x="-992.5" y="750" as="targetPoint" />
          </mxGeometry>
        </mxCell>
        <mxCell id="tGzEacVjx0UiO7vIrDuo-75" value="Sends Email to Tourist Agent and his clients" style="edgeLabel;html=1;align=center;verticalAlign=middle;resizable=0;points=[];" parent="tGzEacVjx0UiO7vIrDuo-74" vertex="1" connectable="0">
          <mxGeometry x="-0.3133" y="-2" relative="1" as="geometry">
            <mxPoint x="-27" y="-8" as="offset" />
          </mxGeometry>
        </mxCell>
      </root>
    </mxGraphModel>
  </diagram>
  <diagram id="s2shC1z2QlNUoHOlh0_T" name="Airline Agent">
    <mxGraphModel dx="3241" dy="41" grid="1" gridSize="10" guides="1" tooltips="1" connect="1" arrows="1" fold="1" page="1" pageScale="1" pageWidth="850" pageHeight="1100" math="0" shadow="0">
      <root>
        <mxCell id="0" />
        <mxCell id="1" parent="0" />
        <mxCell id="o_KXfUBs8LVbOfIOQXVe-1" value="Booking Management System" style="shape=umlLifeline;perimeter=lifelinePerimeter;whiteSpace=wrap;html=1;container=1;collapsible=0;recursiveResize=0;outlineConnect=0;rounded=1;shadow=0;comic=0;labelBackgroundColor=none;strokeWidth=1;fontFamily=Verdana;fontSize=12;align=center;" vertex="1" parent="1">
          <mxGeometry x="-390" y="1280" width="140" height="530" as="geometry" />
        </mxCell>
        <mxCell id="o_KXfUBs8LVbOfIOQXVe-2" value="" style="endArrow=classic;html=1;rounded=0;entryX=1.005;entryY=0.078;entryDx=0;entryDy=0;entryPerimeter=0;exitX=0.7;exitY=0.002;exitDx=0;exitDy=0;exitPerimeter=0;" edge="1" parent="o_KXfUBs8LVbOfIOQXVe-1">
          <mxGeometry width="50" height="50" relative="1" as="geometry">
            <mxPoint x="70" y="100" as="sourcePoint" />
            <mxPoint x="77" y="162" as="targetPoint" />
            <Array as="points">
              <mxPoint x="108" y="100" />
              <mxPoint x="108" y="130" />
              <mxPoint x="108" y="140" />
              <mxPoint x="108" y="162" />
            </Array>
          </mxGeometry>
        </mxCell>
        <mxCell id="o_KXfUBs8LVbOfIOQXVe-3" value="Process Registeration&lt;br&gt;&amp;nbsp;" style="edgeLabel;html=1;align=center;verticalAlign=middle;resizable=0;points=[];" vertex="1" connectable="0" parent="o_KXfUBs8LVbOfIOQXVe-2">
          <mxGeometry x="0.0013" y="1" relative="1" as="geometry">
            <mxPoint x="59" y="10" as="offset" />
          </mxGeometry>
        </mxCell>
        <mxCell id="o_KXfUBs8LVbOfIOQXVe-4" value="" style="html=1;points=[];perimeter=orthogonalPerimeter;rounded=0;shadow=0;comic=0;labelBackgroundColor=none;strokeWidth=1;fontFamily=Verdana;fontSize=12;align=center;" vertex="1" parent="o_KXfUBs8LVbOfIOQXVe-1">
          <mxGeometry x="65" y="160" width="10" height="30" as="geometry" />
        </mxCell>
        <mxCell id="o_KXfUBs8LVbOfIOQXVe-5" value="" style="html=1;labelBackgroundColor=#ffffff;startArrow=none;startFill=0;startSize=6;endArrow=classic;endFill=1;endSize=6;jettySize=auto;orthogonalLoop=1;strokeWidth=1;dashed=1;fontSize=14;rounded=0;" edge="1" parent="o_KXfUBs8LVbOfIOQXVe-1" target="o_KXfUBs8LVbOfIOQXVe-13">
          <mxGeometry width="60" height="60" relative="1" as="geometry">
            <mxPoint x="65" y="190" as="sourcePoint" />
            <mxPoint x="-687" y="190" as="targetPoint" />
          </mxGeometry>
        </mxCell>
        <mxCell id="o_KXfUBs8LVbOfIOQXVe-6" value="Render page information" style="edgeLabel;html=1;align=center;verticalAlign=middle;resizable=0;points=[];" vertex="1" connectable="0" parent="o_KXfUBs8LVbOfIOQXVe-5">
          <mxGeometry x="-0.3133" y="-2" relative="1" as="geometry">
            <mxPoint x="-27" y="-8" as="offset" />
          </mxGeometry>
        </mxCell>
        <mxCell id="o_KXfUBs8LVbOfIOQXVe-7" value="" style="endArrow=classic;html=1;rounded=0;entryX=0.9;entryY=0.056;entryDx=0;entryDy=0;entryPerimeter=0;exitX=0.7;exitY=0.002;exitDx=0;exitDy=0;exitPerimeter=0;" edge="1" parent="o_KXfUBs8LVbOfIOQXVe-1" target="o_KXfUBs8LVbOfIOQXVe-9">
          <mxGeometry width="50" height="50" relative="1" as="geometry">
            <mxPoint x="75" y="240" as="sourcePoint" />
            <mxPoint x="82" y="302" as="targetPoint" />
            <Array as="points">
              <mxPoint x="113" y="240" />
              <mxPoint x="113" y="270" />
              <mxPoint x="113" y="280" />
              <mxPoint x="113" y="302" />
            </Array>
          </mxGeometry>
        </mxCell>
        <mxCell id="o_KXfUBs8LVbOfIOQXVe-8" value="Retrieve booking data" style="edgeLabel;html=1;align=center;verticalAlign=middle;resizable=0;points=[];" vertex="1" connectable="0" parent="o_KXfUBs8LVbOfIOQXVe-7">
          <mxGeometry x="0.0013" y="1" relative="1" as="geometry">
            <mxPoint x="59" y="10" as="offset" />
          </mxGeometry>
        </mxCell>
        <mxCell id="o_KXfUBs8LVbOfIOQXVe-9" value="" style="html=1;points=[];perimeter=orthogonalPerimeter;rounded=0;shadow=0;comic=0;labelBackgroundColor=none;strokeWidth=1;fontFamily=Verdana;fontSize=12;align=center;" vertex="1" parent="o_KXfUBs8LVbOfIOQXVe-1">
          <mxGeometry x="65" y="300" width="10" height="30" as="geometry" />
        </mxCell>
        <mxCell id="o_KXfUBs8LVbOfIOQXVe-10" value="" style="endArrow=classic;html=1;rounded=0;entryX=0.9;entryY=0.056;entryDx=0;entryDy=0;entryPerimeter=0;exitX=0.7;exitY=0.002;exitDx=0;exitDy=0;exitPerimeter=0;" edge="1" parent="o_KXfUBs8LVbOfIOQXVe-1">
          <mxGeometry width="50" height="50" relative="1" as="geometry">
            <mxPoint x="76" y="370" as="sourcePoint" />
            <mxPoint x="75" y="432" as="targetPoint" />
            <Array as="points">
              <mxPoint x="114" y="370" />
              <mxPoint x="114" y="400" />
              <mxPoint x="114" y="410" />
              <mxPoint x="114" y="432" />
            </Array>
          </mxGeometry>
        </mxCell>
        <mxCell id="o_KXfUBs8LVbOfIOQXVe-11" value="Update information with database" style="edgeLabel;html=1;align=center;verticalAlign=middle;resizable=0;points=[];" vertex="1" connectable="0" parent="o_KXfUBs8LVbOfIOQXVe-10">
          <mxGeometry x="0.0013" y="1" relative="1" as="geometry">
            <mxPoint x="85" y="-1" as="offset" />
          </mxGeometry>
        </mxCell>
        <mxCell id="o_KXfUBs8LVbOfIOQXVe-12" value="" style="html=1;points=[];perimeter=orthogonalPerimeter;rounded=0;shadow=0;comic=0;labelBackgroundColor=none;strokeWidth=1;fontFamily=Verdana;fontSize=12;align=center;" vertex="1" parent="o_KXfUBs8LVbOfIOQXVe-1">
          <mxGeometry x="65" y="430" width="10" height="30" as="geometry" />
        </mxCell>
        <mxCell id="o_KXfUBs8LVbOfIOQXVe-13" value="Airline Agent: User" style="shape=umlLifeline;perimeter=lifelinePerimeter;whiteSpace=wrap;html=1;container=1;collapsible=0;recursiveResize=0;outlineConnect=0;rounded=1;shadow=0;comic=0;labelBackgroundColor=none;strokeWidth=1;fontFamily=Verdana;fontSize=12;align=center;" vertex="1" parent="1">
          <mxGeometry x="-690" y="1280" width="100" height="540" as="geometry" />
        </mxCell>
        <mxCell id="o_KXfUBs8LVbOfIOQXVe-14" value="" style="endArrow=classic;html=1;rounded=0;" edge="1" parent="o_KXfUBs8LVbOfIOQXVe-13" target="o_KXfUBs8LVbOfIOQXVe-1">
          <mxGeometry width="50" height="50" relative="1" as="geometry">
            <mxPoint x="50" y="100" as="sourcePoint" />
            <mxPoint x="100" y="50" as="targetPoint" />
          </mxGeometry>
        </mxCell>
        <mxCell id="o_KXfUBs8LVbOfIOQXVe-15" value="logs into Booking Management System" style="edgeLabel;html=1;align=center;verticalAlign=middle;resizable=0;points=[];" vertex="1" connectable="0" parent="o_KXfUBs8LVbOfIOQXVe-14">
          <mxGeometry x="-0.197" y="3" relative="1" as="geometry">
            <mxPoint x="27" y="-10" as="offset" />
          </mxGeometry>
        </mxCell>
        <mxCell id="o_KXfUBs8LVbOfIOQXVe-16" value="" style="endArrow=classic;html=1;rounded=0;" edge="1" parent="o_KXfUBs8LVbOfIOQXVe-13">
          <mxGeometry width="50" height="50" relative="1" as="geometry">
            <mxPoint x="55" y="240" as="sourcePoint" />
            <mxPoint x="375" y="240" as="targetPoint" />
          </mxGeometry>
        </mxCell>
        <mxCell id="o_KXfUBs8LVbOfIOQXVe-17" value="Send Passenger information and flight information" style="edgeLabel;html=1;align=center;verticalAlign=middle;resizable=0;points=[];" vertex="1" connectable="0" parent="o_KXfUBs8LVbOfIOQXVe-16">
          <mxGeometry x="-0.197" y="3" relative="1" as="geometry">
            <mxPoint x="27" y="-10" as="offset" />
          </mxGeometry>
        </mxCell>
        <mxCell id="o_KXfUBs8LVbOfIOQXVe-18" value="" style="html=1;labelBackgroundColor=#ffffff;startArrow=none;startFill=0;startSize=6;endArrow=classic;endFill=1;endSize=6;jettySize=auto;orthogonalLoop=1;strokeWidth=1;dashed=1;fontSize=14;rounded=0;" edge="1" parent="1">
          <mxGeometry width="60" height="60" relative="1" as="geometry">
            <mxPoint x="-315" y="1610" as="sourcePoint" />
            <mxPoint x="-630" y="1610" as="targetPoint" />
          </mxGeometry>
        </mxCell>
        <mxCell id="o_KXfUBs8LVbOfIOQXVe-19" value="Return booking data" style="edgeLabel;html=1;align=center;verticalAlign=middle;resizable=0;points=[];" vertex="1" connectable="0" parent="o_KXfUBs8LVbOfIOQXVe-18">
          <mxGeometry x="-0.3133" y="-2" relative="1" as="geometry">
            <mxPoint x="-27" y="-8" as="offset" />
          </mxGeometry>
        </mxCell>
        <mxCell id="o_KXfUBs8LVbOfIOQXVe-20" value="" style="endArrow=classic;html=1;rounded=0;" edge="1" parent="1">
          <mxGeometry width="50" height="50" relative="1" as="geometry">
            <mxPoint x="-640" y="1650" as="sourcePoint" />
            <mxPoint x="-320" y="1650" as="targetPoint" />
          </mxGeometry>
        </mxCell>
        <mxCell id="o_KXfUBs8LVbOfIOQXVe-21" value="Update Information" style="edgeLabel;html=1;align=center;verticalAlign=middle;resizable=0;points=[];" vertex="1" connectable="0" parent="o_KXfUBs8LVbOfIOQXVe-20">
          <mxGeometry x="-0.197" y="3" relative="1" as="geometry">
            <mxPoint x="27" y="-10" as="offset" />
          </mxGeometry>
        </mxCell>
        <mxCell id="o_KXfUBs8LVbOfIOQXVe-22" value="" style="html=1;labelBackgroundColor=#ffffff;startArrow=none;startFill=0;startSize=6;endArrow=classic;endFill=1;endSize=6;jettySize=auto;orthogonalLoop=1;strokeWidth=1;dashed=1;fontSize=14;rounded=0;" edge="1" parent="1">
          <mxGeometry width="60" height="60" relative="1" as="geometry">
            <mxPoint x="-315" y="1740" as="sourcePoint" />
            <mxPoint x="-630" y="1740" as="targetPoint" />
          </mxGeometry>
        </mxCell>
        <mxCell id="o_KXfUBs8LVbOfIOQXVe-23" value="Confirmation&amp;nbsp;" style="edgeLabel;html=1;align=center;verticalAlign=middle;resizable=0;points=[];" vertex="1" connectable="0" parent="o_KXfUBs8LVbOfIOQXVe-22">
          <mxGeometry x="-0.3133" y="-2" relative="1" as="geometry">
            <mxPoint x="-27" y="-8" as="offset" />
          </mxGeometry>
        </mxCell>
      </root>
    </mxGraphModel>
  </diagram>
  <diagram id="2VR1_APaADYRfTsXXn6_" name="System Admin">
    <mxGraphModel dx="2790" dy="1332" grid="1" gridSize="10" guides="1" tooltips="1" connect="1" arrows="1" fold="1" page="1" pageScale="1" pageWidth="850" pageHeight="1100" math="0" shadow="0">
      <root>
        <mxCell id="0" />
        <mxCell id="1" parent="0" />
        <mxCell id="TsO54rlf7fn1TuQdkuXt-1" value="Flight Management System" style="shape=umlLifeline;perimeter=lifelinePerimeter;whiteSpace=wrap;html=1;container=1;collapsible=0;recursiveResize=0;outlineConnect=0;rounded=1;shadow=0;comic=0;labelBackgroundColor=none;strokeWidth=1;fontFamily=Verdana;fontSize=12;align=center;" vertex="1" parent="1">
          <mxGeometry x="330" y="220" width="140" height="490" as="geometry" />
        </mxCell>
        <mxCell id="TsO54rlf7fn1TuQdkuXt-2" value="" style="endArrow=classic;html=1;rounded=0;entryX=1.005;entryY=0.078;entryDx=0;entryDy=0;entryPerimeter=0;exitX=0.7;exitY=0.002;exitDx=0;exitDy=0;exitPerimeter=0;" edge="1" parent="TsO54rlf7fn1TuQdkuXt-1">
          <mxGeometry width="50" height="50" relative="1" as="geometry">
            <mxPoint x="70" y="100" as="sourcePoint" />
            <mxPoint x="77" y="162" as="targetPoint" />
            <Array as="points">
              <mxPoint x="108" y="100" />
              <mxPoint x="108" y="130" />
              <mxPoint x="108" y="140" />
              <mxPoint x="108" y="162" />
            </Array>
          </mxGeometry>
        </mxCell>
        <mxCell id="TsO54rlf7fn1TuQdkuXt-3" value="Authenticate Login" style="edgeLabel;html=1;align=center;verticalAlign=middle;resizable=0;points=[];" vertex="1" connectable="0" parent="TsO54rlf7fn1TuQdkuXt-2">
          <mxGeometry x="0.0013" y="1" relative="1" as="geometry">
            <mxPoint x="59" y="10" as="offset" />
          </mxGeometry>
        </mxCell>
        <mxCell id="TsO54rlf7fn1TuQdkuXt-4" value="" style="html=1;points=[];perimeter=orthogonalPerimeter;rounded=0;shadow=0;comic=0;labelBackgroundColor=none;strokeWidth=1;fontFamily=Verdana;fontSize=12;align=center;" vertex="1" parent="TsO54rlf7fn1TuQdkuXt-1">
          <mxGeometry x="65" y="160" width="10" height="30" as="geometry" />
        </mxCell>
        <mxCell id="TsO54rlf7fn1TuQdkuXt-5" value="" style="html=1;labelBackgroundColor=#ffffff;startArrow=none;startFill=0;startSize=6;endArrow=classic;endFill=1;endSize=6;jettySize=auto;orthogonalLoop=1;strokeWidth=1;dashed=1;fontSize=14;rounded=0;" edge="1" parent="TsO54rlf7fn1TuQdkuXt-1" target="TsO54rlf7fn1TuQdkuXt-12">
          <mxGeometry width="60" height="60" relative="1" as="geometry">
            <mxPoint x="65" y="190" as="sourcePoint" />
            <mxPoint x="-687" y="190" as="targetPoint" />
          </mxGeometry>
        </mxCell>
        <mxCell id="TsO54rlf7fn1TuQdkuXt-6" value="Display System admin page" style="edgeLabel;html=1;align=center;verticalAlign=middle;resizable=0;points=[];" vertex="1" connectable="0" parent="TsO54rlf7fn1TuQdkuXt-5">
          <mxGeometry x="-0.3133" y="-2" relative="1" as="geometry">
            <mxPoint x="-27" y="-8" as="offset" />
          </mxGeometry>
        </mxCell>
        <mxCell id="TsO54rlf7fn1TuQdkuXt-7" value="" style="endArrow=classic;html=1;rounded=0;entryX=0.9;entryY=0.056;entryDx=0;entryDy=0;entryPerimeter=0;exitX=0.7;exitY=0.002;exitDx=0;exitDy=0;exitPerimeter=0;" edge="1" parent="TsO54rlf7fn1TuQdkuXt-1" target="TsO54rlf7fn1TuQdkuXt-9">
          <mxGeometry width="50" height="50" relative="1" as="geometry">
            <mxPoint x="75" y="240" as="sourcePoint" />
            <mxPoint x="82" y="302" as="targetPoint" />
            <Array as="points">
              <mxPoint x="113" y="240" />
              <mxPoint x="113" y="270" />
              <mxPoint x="113" y="280" />
              <mxPoint x="113" y="302" />
            </Array>
          </mxGeometry>
        </mxCell>
        <mxCell id="TsO54rlf7fn1TuQdkuXt-8" value="process update data" style="edgeLabel;html=1;align=center;verticalAlign=middle;resizable=0;points=[];" vertex="1" connectable="0" parent="TsO54rlf7fn1TuQdkuXt-7">
          <mxGeometry x="0.0013" y="1" relative="1" as="geometry">
            <mxPoint x="59" y="10" as="offset" />
          </mxGeometry>
        </mxCell>
        <mxCell id="TsO54rlf7fn1TuQdkuXt-9" value="" style="html=1;points=[];perimeter=orthogonalPerimeter;rounded=0;shadow=0;comic=0;labelBackgroundColor=none;strokeWidth=1;fontFamily=Verdana;fontSize=12;align=center;" vertex="1" parent="TsO54rlf7fn1TuQdkuXt-1">
          <mxGeometry x="65" y="300" width="10" height="30" as="geometry" />
        </mxCell>
        <mxCell id="TsO54rlf7fn1TuQdkuXt-10" value="" style="endArrow=classic;html=1;rounded=0;" edge="1" parent="TsO54rlf7fn1TuQdkuXt-1">
          <mxGeometry width="50" height="50" relative="1" as="geometry">
            <mxPoint x="75" y="330" as="sourcePoint" />
            <mxPoint x="395" y="330" as="targetPoint" />
          </mxGeometry>
        </mxCell>
        <mxCell id="TsO54rlf7fn1TuQdkuXt-11" value="Refelect changes" style="edgeLabel;html=1;align=center;verticalAlign=middle;resizable=0;points=[];" vertex="1" connectable="0" parent="TsO54rlf7fn1TuQdkuXt-10">
          <mxGeometry x="-0.197" y="3" relative="1" as="geometry">
            <mxPoint x="27" y="-10" as="offset" />
          </mxGeometry>
        </mxCell>
        <mxCell id="TsO54rlf7fn1TuQdkuXt-12" value="System Admin" style="shape=umlLifeline;perimeter=lifelinePerimeter;whiteSpace=wrap;html=1;container=1;collapsible=0;recursiveResize=0;outlineConnect=0;rounded=1;shadow=0;comic=0;labelBackgroundColor=none;strokeWidth=1;fontFamily=Verdana;fontSize=12;align=center;" vertex="1" parent="1">
          <mxGeometry x="30" y="220" width="100" height="500" as="geometry" />
        </mxCell>
        <mxCell id="TsO54rlf7fn1TuQdkuXt-13" value="" style="endArrow=classic;html=1;rounded=0;" edge="1" parent="TsO54rlf7fn1TuQdkuXt-12" target="TsO54rlf7fn1TuQdkuXt-1">
          <mxGeometry width="50" height="50" relative="1" as="geometry">
            <mxPoint x="50" y="100" as="sourcePoint" />
            <mxPoint x="100" y="50" as="targetPoint" />
          </mxGeometry>
        </mxCell>
        <mxCell id="TsO54rlf7fn1TuQdkuXt-14" value="logs into admin panel" style="edgeLabel;html=1;align=center;verticalAlign=middle;resizable=0;points=[];" vertex="1" connectable="0" parent="TsO54rlf7fn1TuQdkuXt-13">
          <mxGeometry x="-0.197" y="3" relative="1" as="geometry">
            <mxPoint x="27" y="-10" as="offset" />
          </mxGeometry>
        </mxCell>
        <mxCell id="TsO54rlf7fn1TuQdkuXt-15" value="" style="endArrow=classic;html=1;rounded=0;" edge="1" parent="TsO54rlf7fn1TuQdkuXt-12">
          <mxGeometry width="50" height="50" relative="1" as="geometry">
            <mxPoint x="55" y="240" as="sourcePoint" />
            <mxPoint x="375" y="240" as="targetPoint" />
          </mxGeometry>
        </mxCell>
        <mxCell id="TsO54rlf7fn1TuQdkuXt-16" value="Modify/update data" style="edgeLabel;html=1;align=center;verticalAlign=middle;resizable=0;points=[];" vertex="1" connectable="0" parent="TsO54rlf7fn1TuQdkuXt-15">
          <mxGeometry x="-0.197" y="3" relative="1" as="geometry">
            <mxPoint x="27" y="-10" as="offset" />
          </mxGeometry>
        </mxCell>
        <mxCell id="TsO54rlf7fn1TuQdkuXt-17" value="" style="html=1;labelBackgroundColor=#ffffff;startArrow=none;startFill=0;startSize=6;endArrow=classic;endFill=1;endSize=6;jettySize=auto;orthogonalLoop=1;strokeWidth=1;dashed=1;fontSize=14;rounded=0;" edge="1" parent="1">
          <mxGeometry width="60" height="60" relative="1" as="geometry">
            <mxPoint x="405" y="550" as="sourcePoint" />
            <mxPoint x="90" y="550" as="targetPoint" />
          </mxGeometry>
        </mxCell>
        <mxCell id="TsO54rlf7fn1TuQdkuXt-18" value="Return Confirmation" style="edgeLabel;html=1;align=center;verticalAlign=middle;resizable=0;points=[];" vertex="1" connectable="0" parent="TsO54rlf7fn1TuQdkuXt-17">
          <mxGeometry x="-0.3133" y="-2" relative="1" as="geometry">
            <mxPoint x="-27" y="-8" as="offset" />
          </mxGeometry>
        </mxCell>
        <mxCell id="TsO54rlf7fn1TuQdkuXt-19" value="Web App&lt;br&gt;" style="shape=umlLifeline;perimeter=lifelinePerimeter;whiteSpace=wrap;html=1;container=1;collapsible=0;recursiveResize=0;outlineConnect=0;rounded=1;shadow=0;comic=0;labelBackgroundColor=none;strokeWidth=1;fontFamily=Verdana;fontSize=12;align=center;" vertex="1" parent="1">
          <mxGeometry x="660" y="220" width="140" height="480" as="geometry" />
        </mxCell>
      </root>
    </mxGraphModel>
  </diagram>
</mxfile>
